<svg xmlns="http://www.w3.org/2000/svg" viewBox="0 0 1700 760" role="img" aria-label="Logo Zivra Studio blanco">
  <g fill="#ffffff" transform="translate(580 -2) scale(0.74)">
    <path d="M210 70C255 78 314 103 372 142C295 159 232 187 170 217C177 160 186 107 210 70Z"/>
    <path d="M162 229C273 171 379 142 488 141C354 207 250 284 162 378V229Z"/>
    <path d="M173 371C290 298 394 266 491 256C500 255 508 259 514 267L545 305C554 315 553 331 543 341L490 390C379 374 272 368 173 371Z"/>
    <path d="M198 413C299 352 397 328 493 323C399 400 303 470 201 505C183 511 167 504 159 488L153 476C147 465 151 451 162 442L198 413Z"/>
  </g>
  <text x="850" y="555" fill="#ffffff" font-family="Space Grotesk, sans-serif" font-size="320" font-weight="700" text-anchor="middle">zivra</text>
  <text x="1060" y="720" fill="#ffffff" font-family="Space Grotesk, sans-serif" font-size="170" font-weight="700" text-anchor="middle">studio</text>
</svg>
